HIERARCHY
ROOT Hips
{
	OFFSET -0.001795 -0.223333 0.028219
	CHANNELS 6 Xposition Yposition Zposition Zrotation Yrotation Xrotation 
	JOINT LeftUpLeg
	{
		OFFSET 0.069520 -0.091406 -0.006815
		CHANNELS 3 Zrotation Yrotation Xrotation
		JOINT LeftLeg
		{
			OFFSET 0.034277 -0.375199 -0.004496
			CHANNELS 3 Zrotation Yrotation Xrotation
			JOINT LeftFoot
			{
				OFFSET -0.013596 -0.397961 -0.043693
				CHANNELS 3 Zrotation Yrotation Xrotation
				JOINT LeftToe
				{
					OFFSET 0.026358 -0.055791 0.119288
					CHANNELS 3 Zrotation Yrotation Xrotation
					End Site
					{
						OFFSET 0.000000 0.000000 0.000000
					}
				}
			}
		}
	}
	JOINT RightUpLeg
	{
		OFFSET -0.067670 -0.090522 -0.004320
		CHANNELS 3 Zrotation Yrotation Xrotation
		JOINT RightLeg
		{
			OFFSET -0.038290 -0.382569 -0.008850
			CHANNELS 3 Zrotation Yrotation Xrotation
			JOINT RightFoot
			{
				OFFSET 0.015774 -0.398415 -0.042312
				CHANNELS 3 Zrotation Yrotation Xrotation
				JOINT RightToe
				{
					OFFSET -0.025372 -0.048144 0.123348
					CHANNELS 3 Zrotation Yrotation Xrotation
					End Site
					{
						OFFSET 0.000000 0.000000 0.000000
					}
				}
			}
		}
	}
	JOINT Spine
	{
		OFFSET -0.002533 0.108963 -0.026696
		CHANNELS 3 Zrotation Yrotation Xrotation
		JOINT Spine1
		{
			OFFSET 0.005487 0.135180 0.001092
			CHANNELS 3 Zrotation Yrotation Xrotation
			JOINT Spine2
			{
				OFFSET 0.001457 0.052922 0.025425
				CHANNELS 3 Zrotation Yrotation Xrotation
				JOINT Neck
				{
					OFFSET -0.002778 0.213870 -0.042857
					CHANNELS 3 Zrotation Yrotation Xrotation
					JOINT Head
					{
						OFFSET 0.005152 0.064970 0.051349
						CHANNELS 3 Zrotation Yrotation Xrotation
						End Site
						{
							OFFSET 0.000000 0.000000 0.000000
						}
					}
				}
				JOINT LeftShoulder
				{
					OFFSET 0.078845 0.121749 -0.034090
					CHANNELS 3 Zrotation Yrotation Xrotation
					JOINT LeftArm
					{
						OFFSET 0.090977 0.030469 -0.008868
						CHANNELS 3 Zrotation Yrotation Xrotation
						JOINT LeftForeArm
						{
							OFFSET 0.259612 -0.012772 -0.027456
							CHANNELS 3 Zrotation Yrotation Xrotation
							JOINT LeftHand
							{
								OFFSET 0.249234 0.008986 -0.001171
								CHANNELS 3 Zrotation Yrotation Xrotation
								End Site
								{
									OFFSET 0.000000 0.000000 0.000000
								}
							}
						}
					}
				}
				JOINT RightShoulder
				{
					OFFSET -0.081759 0.118833 -0.038615
					CHANNELS 3 Zrotation Yrotation Xrotation
					JOINT RightArm
					{
						OFFSET -0.096012 0.032551 -0.009143
						CHANNELS 3 Zrotation Yrotation Xrotation
						JOINT RightForeArm
						{
							OFFSET -0.253742 -0.013329 -0.021401
							CHANNELS 3 Zrotation Yrotation Xrotation
							JOINT RightHand
							{
								OFFSET -0.255298 0.007772 -0.005559
								CHANNELS 3 Zrotation Yrotation Xrotation
								End Site
								{
									OFFSET 0.000000 0.000000 0.000000
								}
							}
						}
					}
				}
			}
		}
	}
}
MOTION
Frames: 15
Frame Time: 0.050000
0.000000 0.915311 0.000000 -1.796251 2.247890 1.047902 7.486537 -0.597137 -15.964302 -2.801566 -0.141628 25.889774 1.937393 2.426577 -3.876319 0.000000 0.000000 0.000000 -3.530624 1.192505 -16.709563 0.218539 0.836643 27.240217 -2.112277 -3.882880 -3.868466 0.000000 0.000000 0.000000 -0.034590 -0.182385 4.415605 -1.132738 0.533971 0.293731 -0.584650 0.224501 8.411482 1.635573 -0.758508 -5.345608 0.000000 0.000000 0.000000 1.642946 -10.971335 3.687807 -16.369657 -17.840805 -0.346066 142.783007 -46.852320 -98.439561 0.000000 0.000000 0.000000 -4.728573 8.515559 2.859074 21.610177 11.585449 -0.646345 -141.119793 53.155311 -100.986101 0.000000 0.000000 0.000000 
0.002564 0.915293 0.002686 -2.115961 2.182168 1.198547 7.916694 -0.533590 -15.483995 -3.369647 0.060212 25.774773 1.908876 2.022548 -4.592827 0.000000 0.000000 0.000000 -3.043601 1.164247 -15.335430 -0.356849 1.010535 26.128388 -2.042117 -3.649576 -3.963622 0.000000 0.000000 0.000000 -0.174973 -0.140540 3.562498 -1.900316 0.894813 0.798885 1.299986 0.328454 8.417981 -0.154234 0.385529 -2.895244 0.000000 0.000000 0.000000 0.531495 -10.458448 3.534919 -16.365969 -19.995296 -0.161405 140.907686 -45.983513 -94.223879 0.000000 0.000000 0.000000 -4.860032 7.581410 2.581716 20.983157 11.121331 -0.706685 -152.459662 53.169987 -118.865983 0.000000 0.000000 0.000000 
0.004960 0.914971 0.004263 -1.868870 2.769757 1.012060 7.069547 -0.636991 -15.276235 -2.479940 -0.307487 26.262661 2.073102 1.921968 -5.501901 0.000000 0.000000 0.000000 -3.900842 1.085912 -15.939725 0.227412 0.787207 27.278537 -2.056689 -4.114644 -2.993006 0.000000 0.000000 0.000000 0.063910 -0.156534 3.695784 -0.669410 0.308027 0.367476 -0.688921 0.528421 9.249521 1.052887 -0.540242 -2.885118 0.000000 0.000000 0.000000 -1.235227 -11.325647 3.816388 -14.985930 -21.208527 -0.166543 136.621905 -44.876842 -87.215035 0.000000 0.000000 0.000000 -2.291664 9.301998 3.169095 18.569403 8.961835 -1.005133 -154.319265 52.305534 -120.533118 0.000000 0.000000 0.000000 
0.006547 0.915315 0.005340 -1.844715 3.679410 0.735842 6.349267 -0.746489 -15.452781 -1.577815 -0.766183 27.779936 1.306995 0.343970 -4.887363 0.000000 0.000000 0.000000 -4.475746 0.975786 -15.706695 0.728623 0.531697 27.967289 -1.950726 -3.619918 -3.604532 0.000000 0.000000 0.000000 0.202597 -0.137410 3.127068 -0.960843 0.432940 0.843018 -0.084004 -1.424461 9.688824 -0.220708 0.408863 -3.005527 0.000000 0.000000 0.000000 -1.425875 -10.969866 3.766875 -15.446190 -21.241734 -0.177814 132.349461 -43.717489 -78.933784 0.000000 0.000000 0.000000 -3.848150 9.853312 3.305084 18.606281 10.293207 -0.824458 -156.349422 54.767925 -128.018537 0.000000 0.000000 0.000000 
0.007164 0.914689 0.006080 -1.879873 3.747739 0.356390 6.403339 -0.718152 -15.016352 -1.725916 -0.749938 28.351828 1.527104 0.772526 -5.050820 0.000000 0.000000 0.000000 -4.984301 0.899765 -15.589422 0.778917 0.508479 28.121148 -2.155445 -4.569098 -2.596161 0.000000 0.000000 0.000000 0.065302 -0.140643 3.326058 -0.795489 0.360526 0.614113 0.075586 -1.393738 9.784534 -0.424638 0.524863 -2.336913 0.000000 0.000000 0.000000 -1.833210 -12.225532 4.223866 -14.356065 -21.501563 -0.234861 125.202994 -41.710788 -67.849670 0.000000 0.000000 0.000000 -3.350760 10.936978 3.656456 17.056857 10.452513 -0.795937 -159.910022 56.432871 -135.781405 0.000000 0.000000 0.000000 
0.006979 0.915198 0.007001 -1.933537 3.645413 0.467321 6.371328 -0.703169 -14.644169 -1.393830 -0.834688 27.823658 1.549136 0.941744 -4.844503 0.000000 0.000000 0.000000 -5.087058 0.886754 -15.475621 0.482944 0.624298 27.804745 -2.089621 -4.249768 -2.966770 0.000000 0.000000 0.000000 0.359361 -0.124743 2.730454 -0.868512 0.397936 0.553684 0.336310 -1.775089 9.714397 -0.682039 0.708766 -2.274478 0.000000 0.000000 0.000000 -0.904110 -12.753547 4.399167 -13.867202 -21.273313 -0.289899 118.215062 -38.977206 -56.819812 0.000000 0.000000 0.000000 -4.881659 11.811517 3.871554 16.418032 12.256030 -0.612195 -163.069203 58.288979 -143.113579 0.000000 0.000000 0.000000 
0.006175 0.917458 0.008846 -1.838443 3.392544 0.419957 6.246298 -0.671307 -13.809613 -1.170360 -0.851199 26.961591 1.477624 0.989124 -4.460706 0.000000 0.000000 0.000000 -5.189291 0.845274 -14.718006 0.099919 0.764464 26.624426 -2.091209 -4.452352 -2.424676 0.000000 0.000000 0.000000 0.639951 -0.121820 2.478797 -1.146274 0.545601 0.105855 0.447423 -1.562618 9.632904 -0.065602 0.255104 -2.811219 0.000000 0.000000 0.000000 -0.322197 -12.383299 4.240815 -12.696191 -21.566351 -0.346013 111.490709 -36.712601 -48.260469 0.000000 0.000000 0.000000 -5.783551 11.793138 3.825895 14.900940 13.554576 -0.521431 -165.556155 58.319942 -147.421686 0.000000 0.000000 0.000000 
0.004919 0.920595 0.012024 -1.781007 3.427479 0.846378 6.165557 -0.653040 -13.082436 -1.098048 -0.811103 25.584637 1.350958 1.000829 -3.869912 0.000000 0.000000 0.000000 -5.571413 0.766157 -13.788813 0.001178 0.756938 24.951404 -1.967935 -4.138879 -2.398413 0.000000 0.000000 0.000000 0.627577 -0.077270 1.522106 -0.975214 0.483884 -0.634511 0.418131 -1.554238 9.105449 0.688595 -0.246557 -3.948536 0.000000 0.000000 0.000000 1.138525 -11.374092 3.846346 -12.275972 -20.842502 -0.394905 106.348227 -33.681772 -40.840582 0.000000 0.000000 0.000000 -7.374204 11.246043 3.614594 14.005554 14.687800 -0.443924 -164.190848 57.825426 -144.651957 0.000000 0.000000 0.000000 
0.002772 0.924065 0.016259 -1.758051 3.636642 1.460642 5.924557 -0.642638 -12.122466 -0.563398 -0.890699 23.394653 1.153506 0.731297 -3.491185 0.000000 0.000000 0.000000 -5.426769 0.732336 -12.603991 -0.124538 0.721740 22.454450 -2.077591 -4.782511 -1.483644 0.000000 0.000000 0.000000 0.827927 -0.025793 0.309965 -1.000307 0.522469 -1.619535 0.563439 -1.814485 8.812044 0.924350 -0.410490 -4.261623 0.000000 0.000000 0.000000 1.919830 -8.847597 3.008483 -11.671497 -20.405149 -0.451101 102.034957 -32.396760 -36.540643 0.000000 0.000000 0.000000 -8.392192 10.067624 3.280429 13.339871 16.007446 -0.376767 -159.653267 56.731206 -136.043281 0.000000 0.000000 0.000000 
-0.000572 0.927618 0.020859 -1.571476 3.956056 1.964527 5.694672 -0.630593 -11.233744 0.136588 -0.991800 21.004637 0.823706 0.623714 -2.247924 0.000000 0.000000 0.000000 -5.501700 0.665644 -11.263865 -0.205841 0.659976 19.742030 -2.128502 -5.221790 -0.625608 0.000000 0.000000 0.000000 0.382114 0.030093 -0.841919 -0.652752 0.375413 -1.994280 0.740098 -2.024309 7.987860 1.099554 -0.512353 -4.627111 0.000000 0.000000 0.000000 3.274127 -6.738531 2.347357 -11.165390 -19.733574 -0.485935 98.500326 -31.801921 -33.791231 0.000000 0.000000 0.000000 -9.280866 8.989183 3.004452 12.747168 17.508358 -0.293431 -153.963797 54.850590 -124.625154 0.000000 0.000000 0.000000 
-0.004961 0.931540 0.024737 -1.742018 4.821140 2.268521 5.967253 -0.597839 -10.512958 0.804893 -1.072364 18.582046 0.369860 0.123988 -1.258118 0.000000 0.000000 0.000000 -5.166268 0.611523 -9.770228 0.022007 0.500962 17.373381 -2.184382 -5.737494 0.535615 0.000000 0.000000 0.000000 0.147823 0.071981 -1.873041 -0.227046 0.214209 -2.718784 0.699154 -2.047079 7.787651 1.690133 -0.971980 -4.318763 0.000000 0.000000 0.000000 4.908736 -4.725448 1.798246 -10.812577 -20.178711 -0.476238 97.176693 -32.433760 -33.991189 0.000000 0.000000 0.000000 -9.547733 7.575598 2.604634 12.255891 18.633305 -0.260742 -146.528679 53.284197 -110.401745 0.000000 0.000000 0.000000 
-0.009782 0.935067 0.027155 -1.814135 5.472323 2.208163 6.241807 -0.553529 -9.637489 1.375388 -1.097059 16.395233 -0.114635 -0.204104 0.071679 0.000000 0.000000 0.000000 -4.685030 0.573308 -8.574748 -0.388239 0.538706 15.301649 -1.886405 -5.327080 1.655559 0.000000 0.000000 0.000000 -0.112178 0.093765 -2.502745 0.209022 0.026024 -2.765713 0.740970 -1.771025 7.361183 1.837552 -1.014891 -4.660520 0.000000 0.000000 0.000000 6.903820 -3.102731 1.476461 -10.221324 -20.582176 -0.480828 95.409660 -34.781091 -35.796085 0.000000 0.000000 0.000000 -10.886785 6.740421 2.343935 11.978380 19.130662 -0.232853 -140.671013 50.854399 -97.889401 0.000000 0.000000 0.000000 
-0.014114 0.938404 0.027639 -2.037804 6.372177 2.393086 6.574534 -0.542983 -9.339147 1.868284 -1.129488 14.870082 -0.683798 -0.867940 1.020845 0.000000 0.000000 0.000000 -4.288059 0.539028 -7.669992 -0.504555 0.490649 13.199178 -1.913696 -5.771732 3.121136 0.000000 0.000000 0.000000 -0.359145 0.105306 -2.954897 0.671035 -0.143307 -3.357533 0.843737 -1.399036 7.628556 2.111933 -1.134802 -5.094072 0.000000 0.000000 0.000000 8.829495 -2.177402 1.428405 -9.049005 -20.893992 -0.562116 96.307907 -37.903746 -40.121421 0.000000 0.000000 0.000000 -11.769752 5.717903 1.997297 10.708406 19.851268 -0.294543 -135.045802 50.002200 -88.188444 0.000000 0.000000 0.000000 
-0.017289 0.940599 0.026411 -2.111086 7.454168 2.619590 6.719307 -0.564675 -9.484081 2.362772 -1.176910 13.746549 -1.109738 -1.311315 1.747286 0.000000 0.000000 0.000000 -4.051367 0.533313 -7.493703 -0.843159 0.517682 12.124619 -1.453594 -4.744782 3.509800 0.000000 0.000000 0.000000 -0.559896 0.106055 -3.116276 0.952063 -0.233206 -3.791296 0.905839 -1.108539 7.569567 2.253897 -1.146002 -5.500823 0.000000 0.000000 0.000000 10.992232 -2.210967 1.696956 -7.420867 -21.441900 -0.681702 98.152468 -40.784913 -44.970065 0.000000 0.000000 0.000000 -13.514235 5.162208 1.760839 9.707085 19.223635 -0.375259 -130.458892 49.206821 -80.447036 0.000000 0.000000 0.000000 
-0.019162 0.942358 0.024058 -2.202691 8.312279 2.579543 6.683697 -0.589560 -9.711498 2.832481 -1.269767 13.425131 -1.569455 -2.107982 1.964181 0.000000 0.000000 0.000000 -3.876844 0.523772 -7.316454 -1.265982 0.573340 11.274727 -1.279278 -4.472826 4.192194 0.000000 0.000000 0.000000 -0.540458 0.092376 -2.695103 1.094498 -0.264961 -4.160832 1.163227 -1.251785 7.663922 2.145192 -0.977003 -6.098661 0.000000 0.000000 0.000000 13.075481 -1.801850 1.814879 -5.546278 -22.516791 -0.854014 101.501080 -42.000956 -48.975024 0.000000 0.000000 0.000000 -15.345047 5.004328 1.673791 8.153275 19.181626 -0.476405 -128.634673 47.720807 -75.900814 0.000000 0.000000 0.000000 
